<svg xmlns="http://www.w3.org/2000/svg" xmlns:xlink="http://www.w3.org/1999/xlink" version="1.1" id="Layer_1" x="0px" y="0px" viewBox="0 0 44 44" style="enable-background:new 0 0 44 44;" xml:space="preserve">
<style type="text/css">
	.st0{fill:#ffd97a;}
</style>
<path class="st0" d="M31.9,16.7c-1.4-1.1-3.2-1.1-3.7-1.1h-0.1H19c-3.7,0-5.2,2.7-5.3,4.5V24c0,0.4,0.2,0.7,0.5,1s0.7,0.4,1.1,0.4  c0.9,0,1.6-0.6,1.6-1.4v-3.8v-0.1c0-0.2,0.1-0.5,0.3-0.9c0.3-0.5,0.9-0.8,1.8-0.8h9.1h0.1c0.2,0,1,0,1.4,0.4C29.9,19,30,19.5,30,20  v21.5c0,0.8,0.7,1.4,1.6,1.4s1.6-0.6,1.6-1.4V20.1C33.3,18.3,32.5,17.3,31.9,16.7z" fill="#000000"/>
<path class="st0" d="M40.5,6c-1.4-1.1-3.2-1.1-3.7-1.1h-0.1h-9.1c-3.7,0-5.2,2.6-5.3,4.4v3.6c0,0.4,0.2,0.7,0.5,1s0.7,0.4,1.1,0.4  c0.9,0,1.6-0.6,1.6-1.4V9.3c0.1-0.6,0.4-1.6,2.1-1.6h9.1h0.2c0.2,0,1,0,1.5,0.4c0.3,0.2,0.4,0.6,0.4,1.1v32.5c0,0.8,0.7,1.4,1.6,1.4  s1.6-0.6,1.6-1.4V9.2C41.9,7.5,41.2,6.5,40.5,6z" fill="#000000"/>
<path class="st0" d="M21.2,27.7c-1.3-1.1-3-1.1-3.5-1h-0.1H9c-3.9,0-5.1,3.1-5.1,4.8v4.3c0,0.8,0.7,1.4,1.6,1.4S7,36.5,7,35.7v-4.2  c0-0.3,0.2-2,2-2h8.8h0.1H18c0,0,0.7-0.1,1.2,0.3c0.3,0.3,0.5,0.8,0.5,1.5v10.3c0,0.8,0.7,1.4,1.6,1.4s1.6-0.6,1.6-1.4V31.3  C22.8,29.7,22.3,28.5,21.2,27.7z" fill="#000000"/>
<path class="st0" d="M14.3,9.5c-1.7-2-3.2-3.6-4.7-4.9C8.8,3.9,7.6,4,6.8,4.8C5.4,6.1,4,7.4,2.6,8.8c-1,0.9-1.1,2.3-0.2,3.3  s2.3,1,3.3,0.1l0.1-0.1c-0.1,1.8-0.1,3.6-0.1,5.4v1.2v1.2c0,0.9-0.1,1.9-0.1,2.9c0,0.9,0.4,1.6,1.1,2.1c0.7,0.4,1.5,0.4,2.2,0.1H9  c0.8-0.4,1.2-1.1,1.2-2.1c0-1.8,0.1-3.7,0.1-5.5v-0.1c0-1.6,0.1-3.3,0.1-4.9l0.2,0.2c0.8,0.8,2.1,0.8,3.1,0.1c0.5-0.4,0.8-1,0.9-1.6  C14.7,10.4,14.5,9.9,14.3,9.5z M7.6,23.4c-0.3-0.2-0.5-0.6-0.5-1V20c0-2.1,0.1-5.1,0.1-5.6v-0.8c0-1.2,0.1-2.4,0.2-3.6V9.9V9.8  l0.1-0.4L6.9,9.1L6.7,9.3c-0.1,0.1-1.8,1.6-2,1.7c-0.4,0.3-0.9,0.3-1.2,0s-0.3-0.8,0.1-1.2C4.1,9.3,5.1,8.5,6,7.6  C6.8,7,7.5,6.3,7.9,6c0.2-0.2,0.6-0.3,0.8-0.1c1.1,1,3.5,3.4,4.3,4.5c0.1,0.1,0.1,0.2,0.1,0.4s-0.1,0.4-0.3,0.6  c-0.3,0.3-0.8,0.2-1.1,0c-0.2-0.4-1.7-1.9-1.8-2L9.7,9.2L9,9.3v0.4v0.1v0.1c0,1.2-0.1,3.9-0.2,6.5c-0.1,2.5-0.2,5-0.2,6.1  c0,0.4-0.1,0.6-0.4,0.8C8,23.5,7.8,23.5,7.6,23.4z" fill="#000000"/>
<path class="st0" d="M8.2,4.8l-5.5,5.5l1.4,1.9l2.3-1.4c0,0-0.5,12.6,0,12.7c0.1,0,0.4,0.1,0.7,0.3c1,0.5,2.1-0.1,2.3-1.1l0.3-1.3  V10.8c0,0,1,1.5,2.6,1.6s2-1.9,0-3.5S8.2,4.8,8.2,4.8z" fill="#000000"/>
</svg>