<?xml version="1.0" encoding="utf-8"?>
<!-- Generator: Adobe Illustrator 24.1.2, SVG Export Plug-In . SVG Version: 6.00 Build 0)  -->
<svg version="1.1" id="Layer_1" xmlns="http://www.w3.org/2000/svg" xmlns:xlink="http://www.w3.org/1999/xlink" x="0px" y="0px"
	 viewBox="0 0 44 44" style="enable-background:new 0 0 44 44;" xml:space="preserve">
<style type="text/css">
	.st0{fill:none;}
	.st1{fill:none;stroke:#C8E6EB;stroke-width:2.75;stroke-linecap:round;stroke-linejoin:round;stroke-miterlimit:7.3333;}
</style>
<path class="st0" d="M0,0h44v44H0V0z"/>
<circle class="st1" cx="27.5" cy="27.5" r="5.5"/>
<path class="st1" d="M23.8,32.1v8.3l3.7-2.8l3.7,2.8v-8.3"/>
<path class="st1" d="M18.3,34.8H9.2c-2,0-3.7-1.6-3.7-3.7V12.8c0-2,1.7-3.7,3.7-3.7h25.7c2,0,3.7,1.6,3.7,3.7v18.3
	c0,1.3-0.7,2.5-1.8,3.2"/>
<line class="st1" x1="11" y1="16.5" x2="33" y2="16.5"/>
<line class="st1" x1="11" y1="22" x2="16.5" y2="22"/>
<line class="st1" x1="11" y1="27.5" x2="14.7" y2="27.5"/>
</svg>
