<?xml version="1.0" encoding="UTF-8"?>
<svg enable-background="new 0 0 44 44" version="1.1" viewBox="0 0 44 44" xml:space="preserve" xmlns="http://www.w3.org/2000/svg">
<style type="text/css">
	.st0{fill:#2C3E50;}
</style>
<path class="st0" d="m31.9 16.7c-1.4-1.1-3.2-1.1-3.7-1.1h-0.1-9.1c-3.7 0-5.2 2.7-5.3 4.5v3.9c0 0.4 0.2 0.7 0.5 1s0.7 0.4 1.1 0.4c0.9 0 1.6-0.6 1.6-1.4v-3.8-0.1c0-0.2 0.1-0.5 0.3-0.9 0.3-0.5 0.9-0.8 1.8-0.8h9.1 0.1c0.2 0 1 0 1.4 0.4 0.3 0.2 0.4 0.7 0.4 1.2v21.5c0 0.8 0.7 1.4 1.6 1.4s1.6-0.6 1.6-1.4v-21.4c0.1-1.8-0.7-2.8-1.3-3.4z"/>
<path class="st0" d="m40.5 6c-1.4-1.1-3.2-1.1-3.7-1.1h-0.1-9.1c-3.7 0-5.2 2.6-5.3 4.4v3.6c0 0.4 0.2 0.7 0.5 1s0.7 0.4 1.1 0.4c0.9 0 1.6-0.6 1.6-1.4v-3.6c0.1-0.6 0.4-1.6 2.1-1.6h9.1 0.2c0.2 0 1 0 1.5 0.4 0.3 0.2 0.4 0.6 0.4 1.1v32.5c0 0.8 0.7 1.4 1.6 1.4s1.6-0.6 1.6-1.4v-32.5c-0.1-1.7-0.8-2.7-1.5-3.2z"/>
<path class="st0" d="m21.2 27.7c-1.3-1.1-3-1.1-3.5-1h-0.1-8.6c-3.9 0-5.1 3.1-5.1 4.8v4.3c0 0.8 0.7 1.4 1.6 1.4s1.5-0.7 1.5-1.5v-4.2c0-0.3 0.2-2 2-2h8.8 0.1 0.1s0.7-0.1 1.2 0.3c0.3 0.3 0.5 0.8 0.5 1.5v10.3c0 0.8 0.7 1.4 1.6 1.4s1.6-0.6 1.6-1.4v-10.3c-0.1-1.6-0.6-2.8-1.7-3.6z"/>
<path class="st0" d="m14.3 9.5c-1.7-2-3.2-3.6-4.7-4.9-0.8-0.7-2-0.6-2.8 0.2-1.4 1.3-2.8 2.6-4.2 4-1 0.9-1.1 2.3-0.2 3.3s2.3 1 3.3 0.1l0.1-0.1c-0.1 1.8-0.1 3.6-0.1 5.4v1.2 1.2c0 0.9-0.1 1.9-0.1 2.9 0 0.9 0.4 1.6 1.1 2.1 0.7 0.4 1.5 0.4 2.2 0.1h0.1c0.8-0.4 1.2-1.1 1.2-2.1 0-1.8 0.1-3.7 0.1-5.5v-0.1c0-1.6 0.1-3.3 0.1-4.9l0.2 0.2c0.8 0.8 2.1 0.8 3.1 0.1 0.5-0.4 0.8-1 0.9-1.6 0.1-0.7-0.1-1.2-0.3-1.6zm-6.7 13.9c-0.3-0.2-0.5-0.6-0.5-1v-2.4c0-2.1 0.1-5.1 0.1-5.6v-0.8c0-1.2 0.1-2.4 0.2-3.6v-0.1-0.1l0.1-0.4-0.6-0.3-0.2 0.2c-0.1 0.1-1.8 1.6-2 1.7-0.4 0.3-0.9 0.3-1.2 0s-0.3-0.8 0.1-1.2c0.5-0.5 1.5-1.3 2.4-2.2 0.8-0.6 1.5-1.3 1.9-1.6 0.2-0.2 0.6-0.3 0.8-0.1 1.1 1 3.5 3.4 4.3 4.5 0.1 0.1 0.1 0.2 0.1 0.4s-0.1 0.4-0.3 0.6c-0.3 0.3-0.8 0.2-1.1 0-0.2-0.4-1.7-1.9-1.8-2l-0.2-0.2-0.7 0.1v0.4 0.1 0.1c0 1.2-0.1 3.9-0.2 6.5-0.1 2.5-0.2 5-0.2 6.1 0 0.4-0.1 0.6-0.4 0.8-0.2 0.2-0.4 0.2-0.6 0.1z"/>
<path class="st0" d="m8.2 4.8l-5.5 5.5 1.4 1.9 2.3-1.4s-0.5 12.6 0 12.7c0.1 0 0.4 0.1 0.7 0.3 1 0.5 2.1-0.1 2.3-1.1l0.3-1.3v-10.6s1 1.5 2.6 1.6 2-1.9 0-3.5-4.1-4.1-4.1-4.1z"/>
</svg>
